<?xml version="1.0" standalone="no"?>
<!DOCTYPE svg PUBLIC "-//W3C//DTD SVG 20010904//EN"
 "http://www.w3.org/TR/2001/REC-SVG-20010904/DTD/svg10.dtd">
<svg version="1.0" xmlns="http://www.w3.org/2000/svg"
 width="512.000000pt" height="512.000000pt" viewBox="0 0 512.000000 512.000000"
 preserveAspectRatio="xMidYMid meet">
<metadata>
Created by potrace 1.14, written by Peter Selinger 2001-2017
</metadata>
<g transform="translate(0.000000,512.000000) scale(0.100000,-0.100000)"
fill="#000000" stroke="none">
<path d="M2451 4849 c-237 -44 -424 -206 -504 -438 l-30 -86 -3 -275 c-1 -151
-3 -282 -3 -291 -1 -14 -21 -16 -162 -16 -199 0 -193 4 -193 -128 0 -58 -4
-95 -11 -96 -5 0 -171 -1 -367 -1 -339 -1 -359 -2 -375 -20 -15 -17 -17 -42
-17 -181 -1 -208 12 -309 59 -484 155 -567 596 -1032 1155 -1217 146 -48 325
-83 447 -87 39 -2 54 -6 57 -18 3 -9 4 -269 4 -578 l0 -563 -47 -1 c-25 0
-153 -1 -284 -2 -219 -2 -240 -4 -252 -20 -17 -23 -11 -58 12 -75 13 -9 154
-12 625 -12 590 0 609 1 628 20 22 22 19 58 -6 77 -12 9 -84 12 -258 12 -132
-1 -257 0 -277 0 l-36 1 -1 562 c0 310 1 570 4 579 3 12 19 16 62 18 138 4
361 53 522 116 288 111 552 304 745 545 183 229 322 534 365 800 6 41 14 89
17 105 3 17 6 93 8 170 3 137 -5 228 -19 243 -4 4 -170 8 -369 9 -199 0 -367
2 -373 2 -6 1 -10 36 -10 96 0 131 7 127 -193 127 -88 0 -161 3 -162 7 0 3 -2
132 -4 286 -3 296 -8 342 -57 445 -52 113 -165 235 -271 294 -123 68 -297 99
-426 75z m271 -124 c95 -32 154 -69 225 -141 67 -68 123 -171 142 -259 14 -70
15 -1629 0 -1710 -44 -247 -275 -437 -529 -436 -148 0 -267 50 -376 156 -81
79 -135 178 -153 279 -15 83 -15 1635 0 1708 39 188 195 355 384 410 87 25
221 22 307 -7z m-811 -1104 c0 -9 1 -86 2 -171 l1 -155 -126 -3 -125 -3 -1
174 -1 173 124 0 c107 0 125 -2 126 -15z m1544 -156 l0 -170 -124 0 -125 0 -1
155 c0 85 1 162 3 171 3 13 22 15 125 15 l122 -1 0 -170z m-1899 -147 c-1
-135 -7 -132 194 -133 l164 0 1 -285 c2 -229 6 -297 19 -345 57 -210 221 -384
426 -451 118 -38 272 -40 395 -4 145 43 310 183 377 320 66 134 72 171 72 482
1 153 3 279 6 279 3 1 76 2 162 3 197 2 191 -2 191 130 l1 96 334 0 334 0 -5
-162 c-6 -173 -7 -186 -38 -318 -148 -643 -654 -1134 -1306 -1269 -95 -20
-177 -26 -328 -26 -189 0 -285 13 -440 56 -602 171 -1046 640 -1189 1254 -13
53 -17 84 -31 195 -4 30 -7 143 -6 218 l1 52 333 0 333 0 0 -92z"/>
<path d="M2368 4381 c-17 -23 -18 -635 -1 -665 14 -25 58 -29 78 -6 14 16 16
55 16 334 0 206 -4 323 -11 336 -14 26 -64 27 -82 1z"/>
<path d="M2670 4380 c-12 -22 -16 -632 -5 -662 13 -34 79 -31 91 6 4 11 8 160
8 330 1 239 -2 313 -12 327 -18 26 -68 25 -82 -1z"/>
<path d="M2375 3220 c-18 -20 -19 -42 -19 -342 0 -318 0 -321 22 -338 23 -19
54 -17 72 5 17 20 15 654 -2 670 -25 25 -54 26 -73 5z"/>
<path d="M2694 3230 c-12 -5 -25 -13 -28 -19 -4 -6 -7 -156 -7 -333 0 -314 0
-323 20 -339 23 -19 53 -15 73 8 13 16 19 618 6 653 -10 26 -39 39 -64 30z"/>
</g>
</svg>
